<svg width="75" height="51" viewBox="0 0 75 51" fill="none" xmlns="http://www.w3.org/2000/svg">
<rect width="75" height="51" rx="25.5" fill="#1A5F7A"/>
<path d="M11.7773 12.8008C11.8008 12.5352 11.832 12.2461 11.8711 11.9336C11.9102 11.6211 11.9727 11.332 12.0586 11.0664C12.1445 10.8008 12.2578 10.582 12.3984 10.4102C12.5469 10.2305 12.7344 10.1406 12.9609 10.1406C13.0859 10.1406 13.2227 10.1641 13.3711 10.2109C13.5273 10.2578 13.6719 10.3242 13.8047 10.4102C13.9453 10.4883 14.0625 10.5859 14.1562 10.7031C14.25 10.8203 14.2969 10.9492 14.2969 11.0898C14.2969 11.1523 14.2852 11.2266 14.2617 11.3125C14.2383 11.3906 14.2188 11.4688 14.2031 11.5469L11.2734 23.2891C11.1562 23.7578 11.0586 24.207 10.9805 24.6367C10.9023 25.0586 10.8438 25.4062 10.8047 25.6797V25.9609C10.8047 26.1953 10.7891 26.4531 10.7578 26.7344C10.7266 27.0078 10.668 27.2656 10.582 27.5078C10.4961 27.7422 10.375 27.9375 10.2188 28.0938C10.0703 28.2578 9.875 28.3398 9.63281 28.3398C9.42188 28.3398 9.23828 28.293 9.08203 28.1992C8.92578 28.1133 8.79688 28 8.69531 27.8594C8.59375 27.7188 8.51953 27.5703 8.47266 27.4141C8.42578 27.25 8.40234 27.0977 8.40234 26.957C8.40234 26.832 8.41406 26.6797 8.4375 26.5C8.46094 26.3125 8.48828 26.1211 8.51953 25.9258C8.55859 25.7227 8.59766 25.5234 8.63672 25.3281C8.67578 25.125 8.71484 24.9492 8.75391 24.8008L11.7773 12.8008ZM10.6172 33.4141C10.2969 33.4141 10.0586 33.3242 9.90234 33.1445C9.73828 32.9727 9.65625 32.7852 9.65625 32.582C9.65625 32.2539 9.75391 31.9688 9.94922 31.7266C10.1367 31.4922 10.3633 31.2812 10.6289 31.0938C10.8945 30.9141 11.168 30.75 11.4492 30.6016C11.7227 30.4609 11.9414 30.3203 12.1055 30.1797C12.457 29.8828 12.7695 29.543 13.043 29.1602C13.3164 28.7773 13.5312 28.4219 13.6875 28.0938C13.9375 27.5781 14.1719 27.0078 14.3906 26.3828C14.6172 25.7578 14.8242 25.1133 15.0117 24.4492C15.1992 23.7773 15.3672 23.0977 15.5156 22.4102C15.6719 21.7227 15.8086 21.0586 15.9258 20.418C15.9648 20.2305 15.9844 20.0547 15.9844 19.8906C15.9922 19.7188 16 19.5508 16.0078 19.3867C16.0234 18.9805 16.0625 18.6562 16.125 18.4141C16.1875 18.1641 16.2734 17.9727 16.3828 17.8398C16.5 17.707 16.6367 17.6211 16.793 17.582C16.957 17.5352 17.1445 17.5117 17.3555 17.5117C17.793 17.5117 18.0977 17.6211 18.2695 17.8398C18.4414 18.0508 18.5273 18.3633 18.5273 18.7773C18.5273 19.0039 18.4922 19.3438 18.4219 19.7969C18.3594 20.25 18.2617 20.7773 18.1289 21.3789C18.0039 21.9805 17.8477 22.6328 17.6602 23.3359C17.4727 24.0391 17.2578 24.7539 17.0156 25.4805C16.7734 26.207 16.5039 26.9219 16.207 27.625C15.918 28.3281 15.6055 28.9805 15.2695 29.582C15.1914 29.7148 15.0977 29.8516 14.9883 29.9922C14.8867 30.1406 14.7773 30.2852 14.6602 30.4258C14.543 30.5742 14.4258 30.7148 14.3086 30.8477C14.1992 30.9805 14.0977 31.1016 14.0039 31.2109C13.6914 31.5781 13.3984 31.8984 13.125 32.1719C12.8516 32.4453 12.5781 32.6719 12.3047 32.8516C12.0391 33.0391 11.7695 33.1797 11.4961 33.2734C11.2227 33.3672 10.9297 33.4141 10.6172 33.4141ZM16.7109 14.2305C16.7109 13.9414 16.7852 13.6914 16.9336 13.4805C17.082 13.2695 17.2656 13.0938 17.4844 12.9531C17.6562 12.8438 17.8086 12.7578 17.9414 12.6953C18.082 12.625 18.2305 12.5898 18.3867 12.5898C18.5977 12.5898 18.7734 12.625 18.9141 12.6953C19.0625 12.7578 19.1797 12.8477 19.2656 12.9648C19.3516 13.0742 19.4102 13.1992 19.4414 13.3398C19.4805 13.4727 19.5 13.6094 19.5 13.75C19.5 14.0312 19.4492 14.2969 19.3477 14.5469C19.2461 14.7969 19.0469 15.0391 18.75 15.2734C18.6406 15.3594 18.5312 15.4297 18.4219 15.4844C18.3125 15.5312 18.1992 15.5547 18.082 15.5547C17.6836 15.5547 17.3555 15.4375 17.0977 15.2031C16.8398 14.9688 16.7109 14.6445 16.7109 14.2305ZM26.1562 27.4961C26.1562 27.2695 26.1836 27 26.2383 26.6875C26.293 26.3672 26.3203 25.9727 26.3203 25.5039C26.0625 25.6914 25.7773 25.9141 25.4648 26.1719C25.1523 26.4297 24.8281 26.6758 24.4922 26.9102C24.1562 27.1445 23.8203 27.3438 23.4844 27.5078C23.1562 27.6641 22.8477 27.7422 22.5586 27.7422C22.3242 27.7422 22.1016 27.707 21.8906 27.6367C21.6797 27.5664 21.5 27.4727 21.3516 27.3555C20.9375 27.0273 20.6367 26.6992 20.4492 26.3711C20.2695 26.043 20.1797 25.6602 20.1797 25.2227C20.1797 25.0273 20.1953 24.8242 20.2266 24.6133C20.2656 24.4023 20.3203 24.1602 20.3906 23.8867C20.6875 22.6523 21.1953 21.5117 21.9141 20.4648C22.6406 19.4102 23.5391 18.5117 24.6094 17.7695C25.0234 17.4805 25.4375 17.2969 25.8516 17.2188C26.2656 17.1328 26.6758 17.0898 27.082 17.0898C27.2617 17.0898 27.4609 17.1016 27.6797 17.125C27.9062 17.1484 28.1094 17.1719 28.2891 17.1953C28.4688 17.1562 28.6133 17.1289 28.7227 17.1133C28.8398 17.0977 28.9609 17.0898 29.0859 17.0898C29.3203 17.0898 29.5156 17.1211 29.6719 17.1836C29.8281 17.2461 29.9531 17.332 30.0469 17.4414C30.1406 17.543 30.207 17.6641 30.2461 17.8047C30.293 17.9375 30.3164 18.0781 30.3164 18.2266C30.3164 18.4297 30.2852 18.625 30.2227 18.8125C30.1602 18.9922 30.0977 19.1758 30.0352 19.3633L28.4883 25.5391C28.457 25.875 28.4297 26.1836 28.4062 26.4648C28.3828 26.7461 28.3359 27.0078 28.2656 27.25C28.2422 27.3203 28.2109 27.4102 28.1719 27.5195C28.1406 27.6211 28.0859 27.7227 28.0078 27.8242C27.9297 27.918 27.832 28 27.7148 28.0703C27.5977 28.1406 27.4453 28.1758 27.2578 28.1758C27.0156 28.1758 26.8203 28.1602 26.6719 28.1289C26.5312 28.0977 26.4219 28.0547 26.3438 28C26.2656 27.9375 26.2148 27.8672 26.1914 27.7891C26.168 27.7031 26.1562 27.6055 26.1562 27.4961ZM22.2656 23.957C22.2344 24.0664 22.1992 24.2227 22.1602 24.4258C22.1289 24.6289 22.1133 24.832 22.1133 25.0352C22.1133 25.2461 22.1445 25.4375 22.207 25.6094C22.2695 25.7734 22.4062 25.8555 22.6172 25.8555C22.9453 25.8555 23.25 25.7852 23.5312 25.6445C23.8203 25.4961 24.0898 25.3203 24.3398 25.1172C24.6758 24.8438 25.0156 24.5391 25.3594 24.2031C25.7109 23.8594 26.0391 23.5 26.3438 23.125C26.6562 22.75 26.9297 22.3672 27.1641 21.9766C27.4062 21.5781 27.582 21.1836 27.6914 20.793C27.7539 20.5664 27.8047 20.3047 27.8438 20.0078C27.8906 19.7109 27.9141 19.4453 27.9141 19.2109C27.9141 19.1094 27.8906 19.0117 27.8438 18.918C27.7969 18.8164 27.707 18.7656 27.5742 18.7656C27.1914 18.7656 26.8047 18.8398 26.4141 18.9883C26.0312 19.1367 25.6602 19.3359 25.3008 19.5859C24.9414 19.8359 24.5977 20.1328 24.2695 20.4766C23.9492 20.8125 23.6562 21.1758 23.3906 21.5664C23.125 21.9492 22.8945 22.3477 22.6992 22.7617C22.5117 23.168 22.3672 23.5664 22.2656 23.957ZM31.9805 23.9805C32.082 23.5586 32.2148 23.1367 32.3789 22.7148C32.5508 22.293 32.7617 21.875 33.0117 21.4609C33.2617 21.0469 33.5586 20.6445 33.9023 20.2539C34.2461 19.8555 34.6484 19.4766 35.1094 19.1172C35.4219 18.8672 35.75 18.6328 36.0938 18.4141C36.4453 18.1875 36.8008 17.9922 37.1602 17.8281C37.5195 17.6641 37.8789 17.5352 38.2383 17.4414C38.6055 17.3398 38.9648 17.2891 39.3164 17.2891C39.5742 17.2891 39.8008 17.3125 39.9961 17.3594C40.1992 17.3984 40.3906 17.457 40.5703 17.5352C40.6484 17.2617 40.8555 16.5273 41.1914 15.332C41.5352 14.1367 41.9531 12.4727 42.4453 10.3398C42.5312 10.1289 42.6523 9.95312 42.8086 9.8125C42.9648 9.67188 43.1523 9.60156 43.3711 9.60156C43.5273 9.60156 43.6797 9.61719 43.8281 9.64844C43.9766 9.67188 44.1094 9.72656 44.2266 9.8125C44.3438 9.89062 44.4375 10 44.5078 10.1406C44.5781 10.2812 44.6133 10.4648 44.6133 10.6914L42.2578 20.1016C42.1875 20.3672 42.1211 20.7266 42.0586 21.1797C41.9961 21.625 41.9375 22.0977 41.8828 22.5977C41.8281 23.0977 41.7852 23.5938 41.7539 24.0859C41.7227 24.5703 41.707 24.9883 41.707 25.3398C41.707 25.7773 41.6562 26.2109 41.5547 26.6406C41.5078 26.8281 41.457 26.9883 41.4023 27.1211C41.3555 27.2461 41.2891 27.3516 41.2031 27.4375C41.1172 27.5156 41.0078 27.5742 40.875 27.6133C40.75 27.6445 40.5898 27.6602 40.3945 27.6602C40.168 27.6602 39.9922 27.6367 39.8672 27.5898C39.7422 27.543 39.6484 27.4805 39.5859 27.4023C39.5234 27.3164 39.4844 27.2227 39.4688 27.1211C39.4609 27.0117 39.4531 26.8984 39.4453 26.7812C39.4453 26.6562 39.4375 26.5312 39.4219 26.4062C39.4141 26.2734 39.3828 26.1484 39.3281 26.0312C39.2344 26.0938 39.1055 26.1758 38.9414 26.2773C38.7773 26.3789 38.6094 26.4844 38.4375 26.5938C38.2734 26.6953 38.1172 26.793 37.9688 26.8867C37.8203 26.9727 37.7109 27.0352 37.6406 27.0742C37.4609 27.1758 37.2578 27.2852 37.0312 27.4023C36.8047 27.5117 36.5586 27.6172 36.293 27.7188C36.0352 27.8125 35.7617 27.8906 35.4727 27.9531C35.1914 28.0156 34.9062 28.0469 34.6172 28.0469C34.2656 28.0469 33.9219 27.9883 33.5859 27.8711C33.2578 27.7539 32.9609 27.5742 32.6953 27.332C32.4375 27.0898 32.2305 26.7852 32.0742 26.418C31.918 26.043 31.8398 25.6055 31.8398 25.1055C31.8398 24.9258 31.8477 24.75 31.8633 24.5781C31.8867 24.3984 31.9258 24.1992 31.9805 23.9805ZM34.0078 23.8867C33.9453 24.1211 33.9141 24.3477 33.9141 24.5664C33.9141 24.793 33.9336 25.0078 33.9727 25.2109C34.0117 25.4062 34.082 25.5781 34.1836 25.7266C34.293 25.875 34.4336 25.9961 34.6055 26.0898C34.7852 26.1758 35.0156 26.2188 35.2969 26.2188C35.4531 26.2188 35.6211 26.1914 35.8008 26.1367C35.9805 26.082 36.1562 26.0156 36.3281 25.9375C36.5078 25.8516 36.6719 25.7656 36.8203 25.6797C36.9766 25.5859 37.1094 25.5039 37.2188 25.4336C37.5156 25.2383 37.7891 25.0469 38.0391 24.8594C38.2969 24.6719 38.5273 24.4688 38.7305 24.25C38.9336 24.0312 39.1094 23.7891 39.2578 23.5234C39.4141 23.25 39.5391 22.9375 39.6328 22.5859C39.7109 22.2734 39.7773 21.9883 39.832 21.7305C39.8945 21.4727 39.9492 21.2227 39.9961 20.9805C40.043 20.7305 40.0859 20.4766 40.125 20.2188C40.1641 19.9609 40.2031 19.6758 40.2422 19.3633C40.2031 19.3164 40.1484 19.2734 40.0781 19.2344C40.0156 19.1875 39.918 19.1641 39.7852 19.1641C39.4727 19.1641 39.1289 19.2188 38.7539 19.3281C38.3789 19.4297 37.9922 19.5781 37.5938 19.7734C37.2031 19.9688 36.8164 20.207 36.4336 20.4883C36.0586 20.7695 35.707 21.0859 35.3789 21.4375C35.0586 21.7812 34.7773 22.1602 34.5352 22.5742C34.293 22.9883 34.1172 23.4258 34.0078 23.8867ZM45.1875 25.8555C45.3047 25.4023 45.4453 24.875 45.6094 24.2734C45.7734 23.6719 45.9453 23.0352 46.125 22.3633C46.3125 21.6914 46.5 21.0039 46.6875 20.3008C46.875 19.5977 47.0508 18.9141 47.2148 18.25C47.2227 18.2188 47.25 18.168 47.2969 18.0977C47.3438 18.0195 47.4102 17.9453 47.4961 17.875C47.582 17.7969 47.6914 17.7305 47.8242 17.6758C47.957 17.6211 48.1133 17.5938 48.293 17.5938C48.4258 17.5938 48.5547 17.6094 48.6797 17.6406C48.8047 17.6641 48.9141 17.7031 49.0078 17.7578C49.1094 17.8125 49.1875 17.8867 49.2422 17.9805C49.3047 18.0664 49.3359 18.168 49.3359 18.2852C49.3359 18.3086 49.3359 18.3359 49.3359 18.3672C49.3359 18.3906 49.332 18.4141 49.3242 18.4375L48.9961 19.6797C48.6289 21.0703 48.2539 22.4648 47.8711 23.8633C47.4961 25.2617 47.1289 26.6641 46.7695 28.0703C46.7539 28.1172 46.7305 28.1758 46.6992 28.2461C46.668 28.3164 46.625 28.3867 46.5703 28.457C46.5156 28.5273 46.4492 28.5859 46.3711 28.6328C46.293 28.6797 46.1992 28.7031 46.0898 28.7031C45.8867 28.7031 45.707 28.6602 45.5508 28.5742C45.3945 28.4961 45.2617 28.3945 45.1523 28.2695C45.043 28.1445 44.9609 28.0078 44.9062 27.8594C44.8516 27.7109 44.8242 27.5703 44.8242 27.4375C44.8242 27.3984 44.8242 27.3633 44.8242 27.332C44.8242 27.3008 44.832 27.2656 44.8477 27.2266L45.1875 25.8555ZM48.2461 13.7266C48.2852 13.5625 48.3555 13.3633 48.457 13.1289C48.5586 12.8945 48.7383 12.6836 48.9961 12.4961C49.1211 12.4258 49.2734 12.3633 49.4531 12.3086C49.6328 12.2461 49.7617 12.2148 49.8398 12.2148C49.918 12.2148 49.9961 12.2422 50.0742 12.2969C50.1602 12.3516 50.2344 12.4102 50.2969 12.4727C50.375 12.5508 50.4492 12.6367 50.5195 12.7305C50.7148 12.7461 50.8398 12.8164 50.8945 12.9414C50.957 13.0664 50.9883 13.2148 50.9883 13.3867C50.9883 13.5117 50.9766 13.625 50.9531 13.7266C50.9297 13.8281 50.9102 13.9102 50.8945 13.9727C50.8477 14.1367 50.7578 14.2891 50.625 14.4297C50.4922 14.5625 50.3398 14.6797 50.168 14.7812C49.9961 14.875 49.8164 14.9492 49.6289 15.0039C49.4414 15.0586 49.2773 15.0859 49.1367 15.0859C48.957 15.0859 48.8164 15.0547 48.7148 14.9922C48.6211 14.9297 48.5 14.7969 48.3516 14.5938C48.2656 14.4766 48.2148 14.3867 48.1992 14.3242C48.1914 14.2539 48.1875 14.1953 48.1875 14.1484C48.1875 14.0625 48.1914 13.9883 48.1992 13.9258C48.2148 13.8555 48.2305 13.7891 48.2461 13.7266ZM51.1523 23.9805C51.2539 23.5586 51.3867 23.1367 51.5508 22.7148C51.7227 22.293 51.9336 21.875 52.1836 21.4609C52.4336 21.0469 52.7305 20.6445 53.0742 20.2539C53.418 19.8555 53.8203 19.4766 54.2812 19.1172C54.5938 18.8672 54.9219 18.6328 55.2656 18.4141C55.6172 18.1875 55.9727 17.9922 56.332 17.8281C56.6914 17.6641 57.0508 17.5352 57.4102 17.4414C57.7773 17.3398 58.1367 17.2891 58.4883 17.2891C58.7461 17.2891 58.9727 17.3125 59.168 17.3594C59.3711 17.3984 59.5625 17.457 59.7422 17.5352C59.8203 17.2617 60.0273 16.5273 60.3633 15.332C60.707 14.1367 61.125 12.4727 61.6172 10.3398C61.7031 10.1289 61.8242 9.95312 61.9805 9.8125C62.1367 9.67188 62.3242 9.60156 62.543 9.60156C62.6992 9.60156 62.8516 9.61719 63 9.64844C63.1484 9.67188 63.2812 9.72656 63.3984 9.8125C63.5156 9.89062 63.6094 10 63.6797 10.1406C63.75 10.2812 63.7852 10.4648 63.7852 10.6914L61.4297 20.1016C61.3594 20.3672 61.293 20.7266 61.2305 21.1797C61.168 21.625 61.1094 22.0977 61.0547 22.5977C61 23.0977 60.957 23.5938 60.9258 24.0859C60.8945 24.5703 60.8789 24.9883 60.8789 25.3398C60.8789 25.7773 60.8281 26.2109 60.7266 26.6406C60.6797 26.8281 60.6289 26.9883 60.5742 27.1211C60.5273 27.2461 60.4609 27.3516 60.375 27.4375C60.2891 27.5156 60.1797 27.5742 60.0469 27.6133C59.9219 27.6445 59.7617 27.6602 59.5664 27.6602C59.3398 27.6602 59.1641 27.6367 59.0391 27.5898C58.9141 27.543 58.8203 27.4805 58.7578 27.4023C58.6953 27.3164 58.6562 27.2227 58.6406 27.1211C58.6328 27.0117 58.625 26.8984 58.6172 26.7812C58.6172 26.6562 58.6094 26.5312 58.5938 26.4062C58.5859 26.2734 58.5547 26.1484 58.5 26.0312C58.4062 26.0938 58.2773 26.1758 58.1133 26.2773C57.9492 26.3789 57.7812 26.4844 57.6094 26.5938C57.4453 26.6953 57.2891 26.793 57.1406 26.8867C56.9922 26.9727 56.8828 27.0352 56.8125 27.0742C56.6328 27.1758 56.4297 27.2852 56.2031 27.4023C55.9766 27.5117 55.7305 27.6172 55.4648 27.7188C55.207 27.8125 54.9336 27.8906 54.6445 27.9531C54.3633 28.0156 54.0781 28.0469 53.7891 28.0469C53.4375 28.0469 53.0938 27.9883 52.7578 27.8711C52.4297 27.7539 52.1328 27.5742 51.8672 27.332C51.6094 27.0898 51.4023 26.7852 51.2461 26.418C51.0898 26.043 51.0117 25.6055 51.0117 25.1055C51.0117 24.9258 51.0195 24.75 51.0352 24.5781C51.0586 24.3984 51.0977 24.1992 51.1523 23.9805ZM53.1797 23.8867C53.1172 24.1211 53.0859 24.3477 53.0859 24.5664C53.0859 24.793 53.1055 25.0078 53.1445 25.2109C53.1836 25.4062 53.2539 25.5781 53.3555 25.7266C53.4648 25.875 53.6055 25.9961 53.7773 26.0898C53.957 26.1758 54.1875 26.2188 54.4688 26.2188C54.625 26.2188 54.793 26.1914 54.9727 26.1367C55.1523 26.082 55.3281 26.0156 55.5 25.9375C55.6797 25.8516 55.8438 25.7656 55.9922 25.6797C56.1484 25.5859 56.2812 25.5039 56.3906 25.4336C56.6875 25.2383 56.9609 25.0469 57.2109 24.8594C57.4688 24.6719 57.6992 24.4688 57.9023 24.25C58.1055 24.0312 58.2812 23.7891 58.4297 23.5234C58.5859 23.25 58.7109 22.9375 58.8047 22.5859C58.8828 22.2734 58.9492 21.9883 59.0039 21.7305C59.0664 21.4727 59.1211 21.2227 59.168 20.9805C59.2148 20.7305 59.2578 20.4766 59.2969 20.2188C59.3359 19.9609 59.375 19.6758 59.4141 19.3633C59.375 19.3164 59.3203 19.2734 59.25 19.2344C59.1875 19.1875 59.0898 19.1641 58.957 19.1641C58.6445 19.1641 58.3008 19.2188 57.9258 19.3281C57.5508 19.4297 57.1641 19.5781 56.7656 19.7734C56.375 19.9688 55.9883 20.207 55.6055 20.4883C55.2305 20.7695 54.8789 21.0859 54.5508 21.4375C54.2305 21.7812 53.9492 22.1602 53.707 22.5742C53.4648 22.9883 53.2891 23.4258 53.1797 23.8867Z" fill="#0FD5F0"/>
<path d="M20.2505 42.5811C20.3774 42.0859 20.5002 41.6247 20.6187 41.1973C20.7371 40.7699 20.8514 40.3615 20.9614 39.9722C21.0757 39.5786 21.1857 39.1978 21.2915 38.8296C21.3973 38.4614 21.4989 38.0869 21.5962 37.7061C21.6343 37.5579 21.6554 37.4162 21.6597 37.2808C21.6681 37.1411 21.6893 36.9972 21.7231 36.8491C21.7401 36.7983 21.7697 36.7539 21.812 36.7158C21.8586 36.6735 21.9093 36.6375 21.9644 36.6079C22.0194 36.5783 22.0765 36.555 22.1357 36.5381C22.1992 36.5212 22.2585 36.5127 22.3135 36.5127C22.432 36.5127 22.5293 36.5275 22.6055 36.5571C22.6859 36.5825 22.7493 36.6185 22.7959 36.665C22.8467 36.7116 22.8805 36.7687 22.8975 36.8364C22.9186 36.8999 22.9292 36.9718 22.9292 37.0522C22.9292 37.1961 22.9059 37.3421 22.8594 37.4902C22.8128 37.6341 22.7557 37.7928 22.688 37.9663C22.8869 37.8097 23.09 37.6616 23.2974 37.522C23.509 37.3823 23.7248 37.2596 23.9448 37.1538C24.1691 37.048 24.3976 36.9634 24.6304 36.8999C24.8631 36.8364 25.1043 36.8047 25.354 36.8047C25.4683 36.8047 25.5825 36.8237 25.6968 36.8618C25.811 36.8957 25.9126 36.9507 26.0015 37.0269C26.0946 37.103 26.1707 37.2025 26.23 37.3252C26.2935 37.4479 26.3294 37.5981 26.3379 37.7759C26.5199 37.6532 26.7082 37.5304 26.9028 37.4077C27.0975 37.2808 27.2943 37.1686 27.4932 37.0713C27.6963 36.9697 27.8973 36.8893 28.0962 36.8301C28.2993 36.7666 28.4961 36.7349 28.6865 36.7349C28.9701 36.7349 29.2028 36.7729 29.3848 36.8491C29.571 36.9211 29.717 37.0205 29.8228 37.1475C29.9328 37.2702 30.009 37.4141 30.0513 37.5791C30.0978 37.7441 30.1211 37.9198 30.1211 38.106C30.1211 38.3091 30.1021 38.5186 30.064 38.7344C30.0259 38.9502 29.9836 39.1554 29.937 39.3501C29.8143 39.841 29.6768 40.3065 29.5244 40.7466C29.3721 41.1825 29.207 41.6247 29.0293 42.0732C28.987 42.179 28.9425 42.2912 28.896 42.4097C28.8494 42.5282 28.7944 42.6382 28.731 42.7397C28.6717 42.8371 28.5998 42.9196 28.5151 42.9873C28.4347 43.0508 28.3395 43.0825 28.2295 43.0825C27.9798 43.0825 27.8084 43.0402 27.7153 42.9556C27.6222 42.8709 27.5757 42.7503 27.5757 42.5938C27.5757 42.5514 27.5778 42.5028 27.582 42.4478C27.5863 42.3927 27.5968 42.3398 27.6138 42.2891C27.6307 42.2256 27.6688 42.1346 27.728 42.0161C27.7873 41.8934 27.8507 41.7622 27.9185 41.6226C27.9904 41.4829 28.0602 41.3433 28.1279 41.2036C28.1956 41.0597 28.2464 40.9349 28.2803 40.8291C28.3353 40.6471 28.3988 40.4377 28.4707 40.2007C28.5469 39.9595 28.6188 39.7183 28.6865 39.4771C28.7542 39.2316 28.8092 39.001 28.8516 38.7852C28.8981 38.5651 28.9214 38.3874 28.9214 38.252C28.9214 38.1885 28.915 38.125 28.9023 38.0615C28.8896 37.998 28.8664 37.943 28.8325 37.8965C28.8029 37.8499 28.7585 37.8118 28.6992 37.7822C28.6442 37.7526 28.5723 37.7378 28.4834 37.7378C28.3564 37.7378 28.2041 37.7738 28.0264 37.8457C27.8529 37.9176 27.6709 38.0129 27.4805 38.1313C27.2943 38.2456 27.1123 38.3768 26.9346 38.5249C26.7568 38.6688 26.6045 38.8127 26.4775 38.9565C26.3887 39.0581 26.304 39.1406 26.2236 39.2041C26.1432 39.2676 26.0628 39.3162 25.9824 39.3501C25.974 39.367 25.9528 39.4242 25.9189 39.5215C25.8851 39.6146 25.8449 39.7288 25.7983 39.8643C25.7518 39.9954 25.7031 40.1393 25.6523 40.2959C25.6016 40.4482 25.5529 40.5921 25.5063 40.7275C25.464 40.8587 25.4281 40.9709 25.3984 41.064C25.3688 41.1528 25.354 41.2015 25.354 41.21C25.3244 41.3285 25.299 41.4512 25.2778 41.5781C25.2567 41.7008 25.2376 41.8193 25.2207 41.9336C25.2038 42.0479 25.1868 42.1706 25.1699 42.3018C25.1572 42.4287 25.1276 42.5493 25.0811 42.6636C25.0387 42.7736 24.971 42.8646 24.8779 42.9365C24.7891 43.0085 24.6621 43.0444 24.4971 43.0444C24.4124 43.0444 24.3341 43.0233 24.2622 42.981C24.1945 42.9386 24.1353 42.8857 24.0845 42.8223C24.0337 42.7546 23.9935 42.6805 23.9639 42.6001C23.9342 42.5155 23.9173 42.4308 23.9131 42.3462C24.0104 41.9653 24.1056 41.6226 24.1987 41.3179C24.2918 41.0132 24.3849 40.7212 24.478 40.4419C24.5711 40.1626 24.66 39.8833 24.7446 39.604C24.8335 39.3205 24.9202 39.0094 25.0049 38.6709C25.026 38.5905 25.043 38.5122 25.0557 38.436C25.0684 38.3556 25.0747 38.2858 25.0747 38.2266C25.0747 38.125 25.0535 38.0425 25.0112 37.979C24.9689 37.9113 24.8949 37.8774 24.7891 37.8774C24.6156 37.8774 24.4421 37.9134 24.2686 37.9854C24.0993 38.0531 23.9152 38.161 23.7163 38.3091C23.5174 38.4572 23.2952 38.6455 23.0498 38.874C22.8086 39.1025 22.5293 39.3755 22.2119 39.6929C22.1781 39.7563 22.1336 39.8748 22.0786 40.0483C22.0236 40.2218 21.9665 40.4059 21.9072 40.6006C21.8522 40.7952 21.8014 40.9772 21.7549 41.1465C21.7083 41.3115 21.6787 41.4215 21.666 41.4766C21.6195 41.6543 21.5877 41.8045 21.5708 41.9272C21.5539 42.0457 21.5391 42.1536 21.5264 42.251C21.5179 42.3018 21.5052 42.3864 21.4883 42.5049C21.4714 42.6191 21.4396 42.7355 21.3931 42.854C21.3507 42.9725 21.2894 43.0762 21.209 43.165C21.1286 43.2581 21.0228 43.3047 20.8916 43.3047C20.6969 43.3047 20.5361 43.2518 20.4092 43.146C20.2865 43.0402 20.2251 42.9069 20.2251 42.7461C20.2251 42.7165 20.2272 42.689 20.2314 42.6636C20.2357 42.6382 20.242 42.6107 20.2505 42.5811ZM34.501 42.7271C34.501 42.6043 34.5158 42.4583 34.5454 42.2891C34.575 42.1156 34.5898 41.9019 34.5898 41.6479C34.4502 41.7495 34.2957 41.8701 34.1265 42.0098C33.9572 42.1494 33.7816 42.2827 33.5996 42.4097C33.4176 42.5366 33.2357 42.6445 33.0537 42.7334C32.876 42.818 32.7088 42.8604 32.5522 42.8604C32.4253 42.8604 32.3047 42.8413 32.1904 42.8032C32.0762 42.7651 31.9788 42.7144 31.8984 42.6509C31.6742 42.4731 31.5112 42.2954 31.4097 42.1177C31.3123 41.9399 31.2637 41.7326 31.2637 41.4956C31.2637 41.3898 31.2721 41.2798 31.2891 41.1655C31.3102 41.0513 31.3398 40.9201 31.3779 40.772C31.5387 40.1034 31.8138 39.4855 32.2031 38.9185C32.5967 38.3472 33.0833 37.8605 33.6631 37.4585C33.8874 37.3019 34.1117 37.2025 34.3359 37.1602C34.5602 37.1136 34.7824 37.0903 35.0024 37.0903C35.0998 37.0903 35.2077 37.0967 35.3262 37.1094C35.4489 37.1221 35.5589 37.1348 35.6562 37.1475C35.7536 37.1263 35.8319 37.1115 35.8911 37.103C35.9546 37.0946 36.0202 37.0903 36.0879 37.0903C36.2148 37.0903 36.3206 37.1073 36.4053 37.1411C36.4899 37.175 36.5576 37.2215 36.6084 37.2808C36.6592 37.3358 36.6951 37.4014 36.7163 37.4775C36.7417 37.5495 36.7544 37.6257 36.7544 37.7061C36.7544 37.8161 36.7375 37.9219 36.7036 38.0234C36.6698 38.1208 36.6359 38.2202 36.6021 38.3218L35.7642 41.667C35.7472 41.849 35.7324 42.0161 35.7197 42.1685C35.707 42.3208 35.6816 42.4626 35.6436 42.5938C35.6309 42.6318 35.6139 42.6805 35.5928 42.7397C35.5758 42.7948 35.5462 42.8498 35.5039 42.9048C35.4616 42.9556 35.4087 43 35.3452 43.0381C35.2817 43.0762 35.1992 43.0952 35.0977 43.0952C34.9665 43.0952 34.8607 43.0868 34.7803 43.0698C34.7041 43.0529 34.6449 43.0296 34.6025 43C34.5602 42.9661 34.5327 42.9281 34.52 42.8857C34.5073 42.8392 34.501 42.7863 34.501 42.7271ZM32.3936 40.8101C32.3766 40.8693 32.3576 40.9539 32.3364 41.064C32.3195 41.174 32.311 41.284 32.311 41.394C32.311 41.5083 32.328 41.612 32.3618 41.7051C32.3957 41.7939 32.4697 41.8384 32.584 41.8384C32.7617 41.8384 32.9268 41.8003 33.0791 41.7241C33.2357 41.6437 33.3817 41.5485 33.5171 41.4385C33.6991 41.2904 33.8831 41.1253 34.0693 40.9434C34.2598 40.7572 34.4375 40.5625 34.6025 40.3594C34.7718 40.1562 34.9199 39.9489 35.0469 39.7373C35.1781 39.5215 35.2733 39.3078 35.3325 39.0962C35.3664 38.9735 35.3939 38.8317 35.415 38.6709C35.4404 38.5101 35.4531 38.3662 35.4531 38.2393C35.4531 38.1842 35.4404 38.1313 35.415 38.0806C35.3896 38.0256 35.341 37.998 35.269 37.998C35.0617 37.998 34.8522 38.0382 34.6406 38.1187C34.4333 38.1991 34.2323 38.307 34.0376 38.4424C33.8429 38.5778 33.6567 38.7386 33.479 38.9248C33.3055 39.1068 33.1468 39.3035 33.0029 39.5151C32.859 39.7225 32.7342 39.9383 32.6284 40.1626C32.5269 40.3826 32.4486 40.5985 32.3936 40.8101ZM37.8525 42.3462C37.9076 42.05 37.971 41.7241 38.043 41.3687C38.1149 41.0132 38.189 40.6535 38.2651 40.2896C38.3413 39.9256 38.4154 39.568 38.4873 39.2168C38.5592 38.8656 38.6206 38.5439 38.6714 38.252C38.6672 38.2096 38.665 38.1737 38.665 38.144C38.665 38.1102 38.665 38.0742 38.665 38.0361C38.665 37.9049 38.6735 37.7738 38.6904 37.6426C38.7074 37.5114 38.7306 37.3908 38.7603 37.2808C38.8068 37.12 38.8576 37.012 38.9126 36.957C38.9718 36.8978 39.0649 36.8682 39.1919 36.8682C39.3146 36.8682 39.4119 36.8936 39.4839 36.9443C39.5601 36.9909 39.6193 37.0544 39.6616 37.1348C39.7039 37.2152 39.7314 37.3083 39.7441 37.4141C39.7568 37.5156 39.7632 37.6214 39.7632 37.7314C39.7632 37.7907 39.7611 37.8563 39.7568 37.9282C39.7526 38.0002 39.7505 38.0573 39.7505 38.0996C39.869 37.9769 39.9938 37.8521 40.125 37.7251C40.2604 37.5939 40.4022 37.4775 40.5503 37.376C40.7026 37.2702 40.8613 37.1834 41.0264 37.1157C41.1956 37.048 41.3713 37.0142 41.5532 37.0142C41.6252 37.0142 41.695 37.0205 41.7627 37.0332C41.8346 37.0459 41.9066 37.0628 41.9785 37.084C42.0632 37.1051 42.1499 37.1348 42.2388 37.1729C42.3319 37.2067 42.4207 37.2554 42.5054 37.3188C42.645 37.4246 42.7614 37.5579 42.8545 37.7188C42.9518 37.8753 43.0005 38.0361 43.0005 38.2012C43.0005 38.2646 42.9878 38.3345 42.9624 38.4106C42.937 38.4826 42.901 38.5503 42.8545 38.6138C42.8122 38.673 42.7614 38.7238 42.7021 38.7661C42.6429 38.8042 42.5773 38.8232 42.5054 38.8232C42.4334 38.8232 42.3446 38.8063 42.2388 38.7725C42.1372 38.7344 42.0526 38.6857 41.9849 38.6265C41.9552 38.6011 41.9235 38.5651 41.8896 38.5186C41.86 38.472 41.8304 38.4255 41.8008 38.3789C41.7754 38.3324 41.75 38.29 41.7246 38.252C41.7035 38.2096 41.6865 38.1821 41.6738 38.1694C41.6527 38.1652 41.6294 38.1631 41.604 38.1631C41.5786 38.1589 41.5553 38.1567 41.5342 38.1567C41.3184 38.1567 41.1131 38.2118 40.9185 38.3218C40.7238 38.4318 40.5418 38.5672 40.3726 38.728C40.2033 38.8846 40.0467 39.0539 39.9028 39.2358C39.7632 39.4136 39.6405 39.5744 39.5347 39.7183C39.45 40.061 39.3548 40.4271 39.249 40.8164C39.1475 41.2015 39.0459 41.6056 38.9443 42.0288V42.1875C38.9443 42.3145 38.9401 42.4435 38.9316 42.5747C38.9232 42.7059 38.8978 42.8223 38.8555 42.9238C38.8089 42.9873 38.7412 43.0402 38.6523 43.0825C38.5677 43.1291 38.4683 43.1523 38.354 43.1523C38.1763 43.1523 38.043 43.0952 37.9541 42.981C37.8652 42.8625 37.8208 42.7249 37.8208 42.5684C37.8208 42.4964 37.8314 42.4224 37.8525 42.3462ZM43.3242 40.5688C43.3877 40.3107 43.485 40.0378 43.6162 39.75C43.7516 39.458 43.9272 39.1639 44.1431 38.8677C44.3589 38.5715 44.617 38.2816 44.9175 37.998C45.2222 37.7145 45.5734 37.45 45.9712 37.2046C46.0347 37.1665 46.132 37.1263 46.2632 37.084C46.3944 37.0374 46.5298 37.0099 46.6694 37.0015C46.8345 36.8237 47.0566 36.7349 47.3359 36.7349C47.666 36.7349 47.9432 36.8195 48.1675 36.9888C48.396 37.1538 48.5843 37.3802 48.7324 37.668C48.779 37.7611 48.8213 37.8521 48.8594 37.9409C48.9017 38.0298 48.9355 38.125 48.9609 38.2266C48.9906 38.3239 49.0138 38.4297 49.0308 38.5439C49.0477 38.6582 49.0562 38.7873 49.0562 38.9312C49.0562 39.2655 49.0033 39.6061 48.8975 39.9531C48.7917 40.3001 48.6414 40.6387 48.4468 40.9688C48.2521 41.2988 48.0151 41.6162 47.7358 41.9209C47.4608 42.2214 47.154 42.4922 46.8154 42.7334C46.5869 42.8984 46.333 43.0254 46.0537 43.1143C45.7786 43.2074 45.4697 43.2539 45.127 43.2539C44.8011 43.2539 44.5176 43.2095 44.2764 43.1206C44.0394 43.036 43.8405 42.9132 43.6797 42.7524C43.5231 42.5916 43.4046 42.3991 43.3242 42.1748C43.248 41.9505 43.21 41.7008 43.21 41.4258C43.21 41.1592 43.248 40.8735 43.3242 40.5688ZM44.3779 40.6514C44.3525 40.7487 44.3335 40.8418 44.3208 40.9307C44.3123 41.0153 44.3081 41.0978 44.3081 41.1782C44.3081 41.3179 44.325 41.4491 44.3589 41.5718C44.397 41.6903 44.4562 41.7939 44.5366 41.8828C44.617 41.9674 44.7165 42.0352 44.835 42.0859C44.9577 42.1325 45.1058 42.1558 45.2793 42.1558C45.6009 42.1558 45.8993 42.0754 46.1743 41.9146C46.4536 41.7495 46.7012 41.5443 46.917 41.2988C47.1328 41.0534 47.3127 40.791 47.4565 40.5117C47.6047 40.2282 47.7083 39.9679 47.7676 39.731C47.8057 39.5828 47.8374 39.4432 47.8628 39.312C47.8924 39.1808 47.9072 39.0602 47.9072 38.9502C47.9072 38.8402 47.8861 38.7386 47.8438 38.6455C47.8057 38.5482 47.7549 38.4403 47.6914 38.3218C47.6533 38.2498 47.6152 38.1758 47.5771 38.0996C47.5391 38.0192 47.5052 37.9409 47.4756 37.8647C47.4417 37.924 47.4058 37.9769 47.3677 38.0234C47.3296 38.0658 47.2725 38.106 47.1963 38.144C47.1201 38.1779 47.0164 38.2096 46.8853 38.2393C46.7541 38.2689 46.5827 38.2943 46.3711 38.3154C46.2314 38.362 46.0897 38.4339 45.9458 38.5312C45.8019 38.6286 45.6602 38.7428 45.5205 38.874C45.3851 39.0052 45.2539 39.147 45.127 39.2993C45.0042 39.4517 44.8921 39.6082 44.7905 39.769C44.6932 39.9256 44.6064 40.0801 44.5303 40.2324C44.4583 40.3848 44.4076 40.5244 44.3779 40.6514ZM50.1606 40.5181C50.241 40.1922 50.3595 39.8516 50.5161 39.4961C50.6769 39.1406 50.8695 38.7979 51.0938 38.4678C51.318 38.1335 51.5719 37.8267 51.8555 37.5474C52.1432 37.2638 52.4564 37.0332 52.7949 36.8555C52.9049 36.7962 53.0256 36.7518 53.1567 36.7222C53.2879 36.6925 53.4212 36.6777 53.5566 36.6777C53.6963 36.6777 53.8254 36.6904 53.9438 36.7158C54.0666 36.7412 54.1702 36.7835 54.2549 36.8428C54.3438 36.902 54.4136 36.9782 54.4644 37.0713C54.5151 37.1644 54.5405 37.2786 54.5405 37.4141C54.5405 37.5156 54.5257 37.6193 54.4961 37.7251C54.4665 37.8267 54.422 37.9198 54.3628 38.0044C54.3035 38.0848 54.2295 38.1504 54.1406 38.2012C54.0518 38.252 53.9481 38.2773 53.8296 38.2773C53.7365 38.2773 53.6497 38.2604 53.5693 38.2266C53.4932 38.1927 53.4191 38.1546 53.3472 38.1123C53.3091 38.0869 53.2731 38.0658 53.2393 38.0488C53.2054 38.0277 53.1652 38.0086 53.1187 37.9917C52.9494 38.0679 52.7886 38.1694 52.6362 38.2964C52.4881 38.4191 52.3485 38.5566 52.2173 38.709C52.0903 38.8613 51.9718 39.0243 51.8618 39.1978C51.756 39.3713 51.6587 39.5448 51.5698 39.7183C51.4852 39.8918 51.4111 40.0632 51.3477 40.2324C51.2884 40.3975 51.2397 40.5498 51.2017 40.6895C51.172 40.791 51.1445 40.9074 51.1191 41.0386C51.098 41.1655 51.0874 41.2904 51.0874 41.4131C51.0874 41.4977 51.0938 41.5781 51.1064 41.6543C51.1234 41.7305 51.1509 41.7982 51.189 41.8574C51.2271 41.9167 51.2778 41.9632 51.3413 41.9971C51.4048 42.0309 51.4831 42.0479 51.5762 42.0479C51.7243 42.0479 51.8703 42.0288 52.0142 41.9907C52.1623 41.9526 52.3062 41.904 52.4458 41.8447C52.5854 41.7855 52.7209 41.7178 52.8521 41.6416C52.9875 41.5612 53.1187 41.4808 53.2456 41.4004C53.326 41.3496 53.4064 41.2967 53.4868 41.2417C53.5672 41.1867 53.6434 41.138 53.7153 41.0957C53.7873 41.0534 53.8529 41.0195 53.9121 40.9941C53.9756 40.9645 54.0306 40.9497 54.0771 40.9497C54.1406 40.9497 54.1999 40.9666 54.2549 41.0005C54.3099 41.0301 54.3374 41.083 54.3374 41.1592C54.3374 41.2142 54.3247 41.2756 54.2993 41.3433C54.2401 41.5083 54.1597 41.6564 54.0581 41.7876C53.9565 41.9188 53.8423 42.0373 53.7153 42.1431C53.5926 42.2446 53.4593 42.3356 53.3154 42.416C53.1758 42.4964 53.0361 42.5705 52.8965 42.6382C52.6341 42.7778 52.3675 42.8836 52.0967 42.9556C51.8301 43.0233 51.6058 43.0571 51.4238 43.0571C51.3646 43.0571 51.2948 43.0508 51.2144 43.0381C51.134 43.0254 51.0641 43.0063 51.0049 42.981C50.6621 42.8328 50.4124 42.634 50.2559 42.3843C50.0993 42.1346 50.021 41.8384 50.021 41.4956C50.021 41.3475 50.0316 41.193 50.0527 41.0322C50.0781 40.8672 50.1141 40.6958 50.1606 40.5181Z" fill="#FDEEEE"/>
<path d="M30.7972 2.38281C30.4691 2.95695 30.1179 3.51599 29.7251 4.03971" stroke="#E46565" stroke-linecap="round"/>
<path d="M21.2457 4.62402C21.2457 5.15617 21.2523 5.66289 21.1482 6.18345" stroke="#FF3030" stroke-linecap="round"/>
<path d="M7.11328 12.7139V15.1505" stroke="#FF30DE" stroke-linecap="round"/>
<path d="M4.18945 25.8716C4.21113 26.576 4.39571 27.2293 4.48185 27.9183" stroke="#349332" stroke-linecap="round"/>
<path d="M11.1094 38.6392C11.6427 39.9033 12.5039 41.0373 13.2211 42.202C13.4774 42.6182 13.7283 43.0336 14.0333 43.4149" stroke="#3038FF" stroke-linecap="round"/>
<path d="M69.3931 29.77C69.0031 31.0134 68.6841 32.3498 68.0286 33.4737" stroke="#838FB3" stroke-linecap="round"/>
<path d="M68.4183 16.5151C68.0619 17.0608 67.7334 17.6671 67.6332 18.3182C67.5586 18.8027 67.08 19.3868 66.8589 19.8289" stroke="#1B929A" stroke-linecap="round"/>
<path d="M57.5999 5.11182C56.9815 6.1682 56.522 7.37082 56.1379 8.52307" stroke="#4E5D78" stroke-linecap="round"/>
<path d="M45.5144 3.55225C45.2675 4.18484 45.0708 4.4505 44.6372 5.01421" stroke="#406EB4" stroke-opacity="0.56" stroke-linecap="round"/>
<path d="M58.0872 42.1479V46.7288" stroke="#FF5F00" stroke-linecap="round"/>
<path d="M38.6918 47.5088C38.6787 48.074 38.6057 48.6499 38.3994 49.1657" stroke="#C0B3B3" stroke-linecap="round"/>
<path d="M25.9238 47.1187C25.7556 47.5068 25.5697 47.8888 25.4365 48.2882" stroke="#8BFF30" stroke-linecap="round"/>
<path d="M30.1148 31.2319C29.9462 32.1916 29.5609 33.0492 29.0427 33.8635" stroke="#FFEA30" stroke-opacity="0.6" stroke-linecap="round"/>
<path d="M55.1632 31.1348C54.4113 31.9994 53.67 33.0084 52.7266 33.6688" stroke="#2B3658" stroke-linecap="round"/>
<path d="M34.9882 11.7393C34.3997 12.496 33.9122 13.4001 33.2339 14.0784" stroke="#30B4FF" stroke-linecap="round"/>
</svg>
